<svg width="39" height="39" viewBox="0 0 39 39" fill="none" xmlns="http://www.w3.org/2000/svg">
<path d="M19.8477 0.847656C9.35426 0.847695 0.847695 9.35426 0.847656 19.8477C0.847696 30.341 9.35426 38.8476 19.8477 38.8477C30.341 38.8476 38.8476 30.341 38.8477 19.8477C38.8476 9.35426 30.341 0.847696 19.8477 0.847656ZM29.6898 9.38139C30.4616 9.35325 31.046 10.052 30.7328 11.3076L26.9683 29.0495C26.7055 30.3104 25.9432 30.612 24.8877 30.0298L19.1523 25.7919C17.8051 27.1017 16.5984 28.2747 16.3952 28.4735C16.0757 28.7857 15.8211 29.0474 15.2474 29.0474C14.504 29.0474 14.6305 28.7661 14.374 28.0581L12.2641 21.5903L6.74999 19.8686C5.52502 19.4933 5.51611 18.6518 7.02506 18.0464L29.134 9.51893C29.3233 9.433 29.5116 9.38788 29.6898 9.38139ZM26.1829 13.155C26.0166 13.1527 25.7907 13.2122 25.558 13.3533L13.1299 21.1944L15.2237 27.6155L15.6384 23.1961L26.2806 13.5941C26.5725 13.335 26.4599 13.1588 26.1829 13.155Z" fill="#DDDDDD"/>
</svg>
